<svg width="140" height="80" viewBox="0 0 140 80" fill="none" xmlns="http://www.w3.org/2000/svg">
<rect width="140" height="80" fill="white"/>
<g clip-path="url(#clip0_3_118)">
<path d="M8.68391 39.6273C10.67 39.6613 13.6237 39.645 16.0516 39.6273C14.9658 37.8759 13.709 35.9046 12.3683 33.9017C10.9585 36.0219 9.75275 37.9094 8.68391 39.6273ZM16.4926 40.3459C14.2185 40.3126 10.8396 40.296 8.22549 40.3459C7.51224 41.498 6.84987 42.5671 6.2227 43.5524H5.04976L5 43.4842C7.25712 40.4299 9.70258 36.623 11.8421 33.1333H13.4883C15.5256 36.5556 17.4951 39.645 20.194 43.4842L20.1268 43.5524H18.4277C17.9024 42.666 17.2574 41.5655 16.4926 40.3459Z" fill="#A4A4A4"/>
<path d="M23.211 33.1333H24.5355C27.6256 35.988 31.4283 39.3269 34.5349 42.0154C34.5694 39.6613 34.5694 35.3369 34.5349 33.1849L34.6026 33.1333H35.4522L35.52 33.2007C35.4522 36.189 35.4522 40.3459 35.52 43.4842L35.4351 43.5524H34.1784C31.5127 41.0136 27.1321 37.1569 24.1277 34.5699C24.0941 36.6553 24.0766 40.8963 24.1277 43.5009L24.0596 43.5524H23.1935L23.1432 43.5009C23.1935 40.9302 23.1935 35.6042 23.1432 33.1849L23.211 33.1333Z" fill="#A4A4A4"/>
<path d="M41.0692 42.6999C41.9865 42.7837 42.5292 42.9341 44.872 42.9341C49.4899 42.9341 51.6468 41.2643 51.6468 38.4924C51.6468 35.4538 49.3713 33.7843 44.7884 33.7843C42.9884 33.7843 42.123 33.9352 41.0692 34.0856C41.0195 35.7877 41.0356 39.8779 41.0692 42.6999ZM39.6265 43.5181C39.695 40.3126 39.695 35.7043 39.6265 33.2841L39.695 33.2168C41.0013 33.1672 42.123 33 45.1104 33C49.4392 33 53.2593 34.753 53.2593 38.4593C53.2593 41.7645 49.5591 43.701 45.1104 43.701C42.462 43.701 40.8997 43.5524 39.695 43.5679L39.6265 43.5181Z" fill="#A4A4A4"/>
<path d="M61.8748 42.9341C66.3062 42.9341 67.4782 42.2831 67.4782 40.7454C67.4782 38.9101 65.6609 38.6604 61.671 38.6604C60.1257 38.6604 58.9883 38.694 58.0211 38.7431C58.0211 40.1129 58.0384 41.5655 58.0384 42.6999C59.0393 42.8503 60.5509 42.9341 61.8748 42.9341ZM61.3826 37.8759C65.593 37.8259 66.8665 37.2742 66.8665 35.7718C66.8665 34.3198 65.6945 33.7843 61.9427 33.7843C60.0761 33.7843 59.1072 33.9179 58.0553 34.0679C58.0384 34.8196 58.0211 36.3063 58.0211 37.8925C59.227 37.8925 59.7701 37.8925 61.3826 37.8759ZM56.6635 33.2168C57.9704 33.1672 59.5147 33 62.265 33C65.9842 33 68.3259 33.5846 68.3259 35.8057C68.3259 37.1069 66.9348 37.8759 65.1518 38.1088V38.1589C67.1882 38.3265 68.9892 38.9936 68.9892 40.6135C68.9892 42.95 66.4081 43.701 62.1125 43.701C60.5509 43.701 57.6481 43.6009 56.6459 43.5524L56.595 43.5009C56.6459 40.8636 56.6459 35.8549 56.595 33.2669L56.6635 33.2168Z" fill="#A4A4A4"/>
<path d="M75.3535 39.6273C77.3396 39.6613 80.2946 39.645 82.7229 39.6273C81.6368 37.8759 80.3799 35.9046 79.0387 33.9017C77.6296 36.0219 76.4236 37.9094 75.3535 39.6273ZM83.1635 40.3459C80.8874 40.3126 77.511 40.296 74.896 40.3459C74.1824 41.498 73.5208 42.5671 72.8929 43.5524H71.7212L71.6689 43.4842C73.9277 40.4299 76.3724 36.623 78.5123 33.1333H80.1582C82.1952 36.5556 84.1657 39.645 86.8656 43.4842L86.7974 43.5524H85.0987C84.5729 42.666 83.9276 41.5655 83.1635 40.3459Z" fill="#A4A4A4"/>
<path d="M89.4986 33.1333H90.8235C93.9134 35.988 97.7152 39.3269 100.823 42.0154C100.857 39.6613 100.857 35.3369 100.823 33.1849L100.89 33.1333H101.74L101.807 33.2007C101.74 36.189 101.74 40.3459 101.807 43.4842L101.722 43.5524H100.466C97.8014 41.0136 93.4209 37.1569 90.4156 34.5699C90.3823 36.6553 90.3653 40.8963 90.4156 43.5009L90.3471 43.5524H89.4826L89.4314 43.5009C89.4826 40.9302 89.4826 35.6042 89.4314 33.1849L89.4986 33.1333Z" fill="#A4A4A4"/>
<path d="M107.936 43.5524H106.594L106.542 43.5181C106.611 40.3126 106.611 35.5879 106.542 33.1849L106.611 33.1333H107.936L108.003 33.2007C107.952 34.8196 107.936 36.9565 107.936 39.1276C111.415 36.8899 113.946 34.9863 116.457 33.1333H118.36L118.393 33.2007C116.542 34.2853 114.285 35.7718 111.942 37.3747C113.894 39.1434 116.577 41.4979 119.089 43.4842L119.038 43.5524H117.018C114.71 41.381 112.96 39.8779 110.805 38.1589L107.936 40.1293C107.952 41.314 107.969 42.4666 108.003 43.5009L107.936 43.5524Z" fill="#A4A4A4"/>
<path d="M133.57 33.1356L126.746 54.8804H128.246L135 33.1356H133.57Z" fill="#A4A4A4"/>
<path d="M59.8848 50.172L59.6355 51.9118H60.3747C60.8722 51.9118 61.2167 51.8779 61.4076 51.8103C61.5989 51.7428 61.7527 51.6267 61.8693 51.4618C61.9859 51.2969 62.0443 51.1138 62.0443 50.912C62.0443 50.7462 62.0045 50.6051 61.9257 50.4887C61.8463 50.3726 61.737 50.2907 61.5979 50.2432C61.4589 50.1958 61.2032 50.172 60.8312 50.172H59.8848ZM59.4103 49.6669H60.8578C61.3368 49.6669 61.6803 49.7109 61.8885 49.7985C62.0965 49.8863 62.2631 50.0268 62.3884 50.2202C62.5136 50.4135 62.5761 50.6417 62.5761 50.9051C62.5761 51.2489 62.4774 51.5484 62.2804 51.8033C62.083 52.0583 61.8341 52.2321 61.5335 52.3246C61.3147 52.3934 60.9286 52.4277 60.3756 52.4277H59.5711L59.227 54.9003H58.6907L59.4103 49.6669Z" fill="#A4A4A4"/>
<path d="M63.5777 51.0295H64.0852L64.0166 51.5167C64.1518 51.3318 64.3149 51.1877 64.5055 51.0847C64.6965 50.9814 64.8919 50.9299 65.0925 50.9299C65.2351 50.9299 65.3834 50.9632 65.5382 51.0295L65.2992 51.485C65.1739 51.435 65.0691 51.4102 64.9848 51.4102C64.8093 51.4102 64.6353 51.4707 64.4629 51.5918C64.2909 51.7126 64.1512 51.8889 64.0438 52.1202C63.9368 52.3516 63.8462 52.7317 63.7718 53.2607L63.5418 54.9003H63.0452L63.5777 51.0295Z" fill="#A4A4A4"/>
<path d="M66.5679 49.4356C66.6788 49.4356 66.7742 49.4749 66.8537 49.5532C66.9332 49.6314 66.9729 49.7252 66.9729 49.8341C66.9729 49.9458 66.9332 50.0399 66.8537 50.117C66.7742 50.1941 66.6788 50.2328 66.5679 50.2328C66.4545 50.2328 66.3587 50.1941 66.2802 50.117C66.202 50.0399 66.1626 49.9458 66.1626 49.8341C66.1626 49.7252 66.202 49.6314 66.2802 49.5532C66.3587 49.4749 66.4545 49.4356 66.5679 49.4356ZM66.1703 51.0295H66.6487L66.1347 54.9003H65.6381L66.1703 51.0295Z" fill="#A4A4A4"/>
<path d="M67.5327 51.0295H68.053L69.0468 53.8537L70.702 51.0295H71.2521L68.9834 54.9003H68.8895L67.5327 51.0295Z" fill="#A4A4A4"/>
<path d="M73.7999 54.5446C74.1241 54.5446 74.4199 54.4692 74.6864 54.3185C74.9533 54.1676 75.1645 53.9511 75.3208 53.6687C75.4768 53.3862 75.555 53.0787 75.555 52.7465C75.555 52.346 75.4266 52.0202 75.1693 51.7692C74.9123 51.5181 74.5785 51.3924 74.1674 51.3924C73.6846 51.3924 73.2712 51.5644 72.9275 51.9083C72.5843 52.2523 72.4123 52.6744 72.4123 53.1748C72.4123 53.5852 72.5404 53.916 72.7977 54.1674C73.055 54.419 73.3888 54.5446 73.7999 54.5446ZM75.7373 54.9003H75.2269L75.3048 54.3183C74.8498 54.7727 74.3295 55 73.7435 55C73.2101 55 72.7714 54.8304 72.428 54.4911C72.0845 54.152 71.9131 53.7156 71.9131 53.182C71.9131 52.5653 72.1367 52.0359 72.5846 51.5934C73.0329 51.151 73.5596 50.9299 74.1655 50.9299C74.4939 50.9299 74.7816 50.9975 75.0289 51.1324C75.2766 51.2674 75.4849 51.478 75.6534 51.7646L75.7444 51.0295H76.2698L75.7373 54.9003Z" fill="#A4A4A4"/>
<path d="M78.3197 49.5815H78.8154L78.619 51.0295H79.4116L79.354 51.4636H78.5603L78.0948 54.9003H77.5879L78.0608 51.4636H77.3858L77.447 51.0295H78.1204L78.3197 49.5815Z" fill="#A4A4A4"/>
<path d="M83.5425 52.6304C83.5281 52.2664 83.4009 51.9713 83.1625 51.7454C82.9238 51.5196 82.6236 51.4067 82.2616 51.4067C81.8681 51.4067 81.5214 51.5155 81.2212 51.7331C80.921 51.9507 80.7083 52.2498 80.5827 52.6304H83.5425ZM84.0051 53.0646H80.4962C80.4888 53.5249 80.6106 53.8865 80.8614 54.1496C81.112 54.413 81.4461 54.5446 81.8636 54.5446C82.1411 54.5446 82.3977 54.4889 82.6339 54.3773C82.8706 54.266 83.0661 54.1094 83.2205 53.9076L83.5963 54.2101C83.4057 54.4496 83.1571 54.6413 82.8495 54.7847C82.5419 54.9283 82.2097 55 81.8527 55C81.2353 55 80.7714 54.8119 80.4616 54.436C80.1514 54.0601 79.9967 53.6374 79.9967 53.1677C79.9967 52.7834 80.1011 52.4134 80.3094 52.0577C80.5183 51.702 80.7977 51.4251 81.1472 51.2269C81.4971 51.029 81.8755 50.9299 82.2833 50.9299C82.787 50.9299 83.2048 51.0977 83.5351 51.4333C83.8655 51.769 84.0305 52.1965 84.0305 52.7158C84.0305 52.8107 84.0221 52.9271 84.0051 53.0646Z" fill="#A4A4A4"/>
<path d="M88.5352 50.1614L88.2956 51.9012C88.399 51.9106 88.5186 51.9154 88.6547 51.9154C89.1334 51.9154 89.4788 51.8774 89.6902 51.8013C89.9023 51.7254 90.0667 51.6059 90.184 51.4431C90.3012 51.2803 90.3599 51.1003 90.3599 50.903C90.3599 50.6463 90.2682 50.4569 90.0856 50.3344C89.9027 50.2121 89.5137 50.1509 88.9187 50.1509C88.8162 50.1509 88.6884 50.1544 88.5352 50.1614ZM88.2254 52.4134L87.9515 54.4059H88.6711C89.1725 54.4059 89.5172 54.3856 89.7053 54.3453C89.9703 54.286 90.1712 54.1788 90.3073 54.0234C90.4435 53.8681 90.5117 53.6682 90.5117 53.424C90.5117 53.2057 90.4566 53.0236 90.3461 52.8777C90.2352 52.7319 90.0539 52.6181 89.8014 52.5363C89.5489 52.4545 89.1715 52.4134 88.6688 52.4134H88.2254ZM88.0732 49.6669H88.7544C89.4224 49.6669 89.8741 49.7067 90.1093 49.7862C90.3451 49.8656 90.5354 50.0038 90.6809 50.2006C90.826 50.3976 90.8991 50.6298 90.8991 50.898C90.8991 51.1778 90.8216 51.4281 90.6668 51.6487C90.5121 51.8693 90.3038 52.0282 90.0424 52.1253C90.357 52.2202 90.6037 52.3821 90.7825 52.611C90.9616 52.8398 91.051 53.1107 91.051 53.424C91.051 53.744 90.9744 54.0193 90.8212 54.2493C90.6681 54.4794 90.4627 54.6455 90.2042 54.7473C89.9462 54.8494 89.5012 54.9003 88.8691 54.9003H87.3533L88.0732 49.6669Z" fill="#A4A4A4"/>
<path d="M93.79 54.5446C94.1146 54.5446 94.41 54.4692 94.6769 54.3185C94.9438 54.1676 95.1549 53.9511 95.3113 53.6687C95.4673 53.3862 95.5455 53.0787 95.5455 52.7465C95.5455 52.346 95.417 52.0202 95.1597 51.7692C94.9028 51.5181 94.5689 51.3924 94.1578 51.3924C93.675 51.3924 93.2617 51.5644 92.9179 51.9083C92.5744 52.2523 92.4027 52.6744 92.4027 53.1748C92.4027 53.5852 92.5312 53.916 92.7881 54.1674C93.0454 54.419 93.3796 54.5446 93.79 54.5446ZM95.7278 54.9003H95.2174L95.2952 54.3183C94.8403 54.7727 94.3196 55 93.7336 55C93.2005 55 92.7619 54.8304 92.4187 54.4911C92.0753 54.152 91.9035 53.7156 91.9035 53.182C91.9035 52.5653 92.1272 52.0359 92.5748 51.5934C93.023 51.151 93.55 50.9299 94.1556 50.9299C94.4843 50.9299 94.772 50.9975 95.0194 51.1324C95.2671 51.2674 95.4753 51.478 95.6438 51.7646L95.7348 51.0295H96.2603L95.7278 54.9003Z" fill="#A4A4A4"/>
<path d="M97.688 51.0295H98.1734L98.0923 51.6317C98.4922 51.1639 98.9584 50.9299 99.4889 50.9299C99.8965 50.9299 100.225 51.0528 100.475 51.2981C100.725 51.5435 100.85 51.8736 100.85 52.2883C100.85 52.4545 100.823 52.7333 100.769 53.1249L100.524 54.9003H100.028L100.272 53.1252C100.325 52.7455 100.35 52.4653 100.35 52.2845C100.35 52.0135 100.267 51.7945 100.1 51.6281C99.9327 51.4614 99.7135 51.3781 99.4422 51.3781C99.1759 51.3781 98.9282 51.4457 98.6995 51.5809C98.4704 51.7162 98.2932 51.8994 98.1673 52.1306C98.0414 52.3617 97.9446 52.7275 97.8773 53.2278L97.6518 54.9003H97.1555L97.688 51.0295Z" fill="#A4A4A4"/>
<path d="M102.664 49.5354H103.156L102.76 52.4733L104.667 51.0295H105.456L103.171 52.7587L105.184 54.9003H104.508L102.686 52.9673L102.432 54.9003H101.926L102.664 49.5354Z" fill="#A4A4A4"/>
<path d="M109.519 52.6304C109.504 52.2664 109.378 51.9713 109.14 51.7454C108.901 51.5196 108.6 51.4067 108.238 51.4067C107.845 51.4067 107.498 51.5155 107.198 51.7331C106.898 51.9507 106.685 52.2498 106.56 52.6304H109.519ZM109.982 53.0646H106.473C106.466 53.5249 106.587 53.8865 106.838 54.1496C107.089 54.413 107.423 54.5446 107.84 54.5446C108.118 54.5446 108.374 54.4889 108.611 54.3773C108.847 54.266 109.043 54.1094 109.197 53.9076L109.573 54.2101C109.383 54.4496 109.134 54.6413 108.826 54.7847C108.519 54.9283 108.187 55 107.829 55C107.212 55 106.748 54.8119 106.439 54.436C106.128 54.0601 105.973 53.6374 105.973 53.1677C105.973 52.7834 106.078 52.4134 106.287 52.0577C106.495 51.702 106.774 51.4251 107.124 51.2269C107.473 51.029 107.853 50.9299 108.26 50.9299C108.764 50.9299 109.181 51.0977 109.512 51.4333C109.842 51.769 110.008 52.1965 110.008 52.7158C110.008 52.8107 109.999 52.9271 109.982 53.0646Z" fill="#A4A4A4"/>
<path d="M111.317 51.0295H111.824L111.756 51.5167C111.891 51.3318 112.054 51.1877 112.245 51.0847C112.435 50.9814 112.631 50.9299 112.831 50.9299C112.974 50.9299 113.122 50.9632 113.277 51.0295L113.038 51.485C112.913 51.435 112.808 51.4102 112.724 51.4102C112.548 51.4102 112.374 51.4707 112.202 51.5918C112.03 51.7126 111.89 51.8889 111.783 52.1202C111.676 52.3516 111.585 52.7317 111.511 53.2607L111.281 54.9003H110.784L111.317 51.0295Z" fill="#A4A4A4"/>
<path d="M115.838 51.4636L115.563 51.8657C115.341 51.5549 115.078 51.3996 114.774 51.3996C114.6 51.3996 114.452 51.4552 114.329 51.5668C114.206 51.6782 114.144 51.8017 114.144 51.9368C114.144 52.041 114.182 52.1408 114.257 52.2357C114.329 52.3306 114.494 52.4598 114.752 52.6233C115.128 52.8629 115.377 53.0716 115.497 53.2495C115.616 53.4299 115.675 53.6374 115.675 53.8722C115.675 54.1972 115.559 54.4663 115.329 54.6798C115.099 54.8933 114.799 55 114.43 55C113.942 55 113.532 54.7877 113.199 54.3631L113.507 54.0109C113.799 54.3595 114.116 54.5339 114.458 54.5339C114.654 54.5339 114.824 54.4663 114.969 54.3312C115.114 54.1959 115.186 54.0395 115.186 53.8615C115.186 53.7169 115.132 53.5781 115.024 53.4451C114.953 53.3599 114.765 53.215 114.459 53.0109C114.129 52.788 113.912 52.6029 113.808 52.4558C113.704 52.3112 113.652 52.1475 113.652 51.965C113.652 51.678 113.762 51.4338 113.982 51.2323C114.201 51.0308 114.479 50.9299 114.814 50.9299C115.012 50.9299 115.191 50.9691 115.352 51.0474C115.512 51.1257 115.674 51.2644 115.838 51.4636Z" fill="#A4A4A4"/>
</g>
<defs>
<clipPath id="clip0_3_118">
<rect width="130" height="22" fill="white" transform="translate(5 33)"/>
</clipPath>
</defs>
</svg>
