<svg width="140" height="80" viewBox="0 0 140 80" fill="none" xmlns="http://www.w3.org/2000/svg">
<rect width="140" height="80" fill="white"/>
<path d="M32.1424 36.2133H28.7142V34.1956H38.0464V36.2133H34.6208V44.9047H32.1424V36.2133Z" fill="#A4A4A4"/>
<path d="M46.3877 44.9046L44.3288 41.9192H42.0485V44.9046H39.5649V34.2084H44.1975C47.0595 34.2084 48.8482 35.6908 48.8482 38.0921C48.8777 38.8148 48.6814 39.5287 48.2866 40.1347C47.8918 40.7408 47.3181 41.2088 46.6451 41.4739L49.0463 44.9175L46.3877 44.9046ZM44.0714 36.2133H42.0511V39.9477H44.0714C45.5847 39.9477 46.3491 39.2425 46.3491 38.0792C46.3491 36.9159 45.577 36.2133 44.0714 36.2133Z" fill="#A4A4A4"/>
<path d="M58.8263 42.9152V44.9047H50.5339V34.1956H58.6281V36.1824H52.9969V38.509H57.9693V40.4367H52.9969V42.9152H58.8263Z" fill="#A4A4A4"/>
<path d="M60.0334 43.8469L60.875 41.981C61.9138 42.7002 63.1453 43.0894 64.4087 43.098C65.8757 43.098 66.4677 42.609 66.4677 41.9501C66.4677 39.9478 60.2419 41.3247 60.2419 37.3458C60.2419 35.5262 61.7115 34 64.7562 34C66.1022 34 67.4791 34.3217 68.4726 34.9497L67.7004 36.831C66.8024 36.3083 65.7849 36.0256 64.7459 36.01C63.2763 36.01 62.7101 36.5608 62.7101 37.2325C62.7101 39.2065 68.9358 37.8451 68.9358 41.7777C68.9358 43.5664 67.4534 45.0977 64.3933 45.0977C62.6946 45.0977 60.9806 44.583 60.0334 43.8572" fill="#A4A4A4"/>
<path d="M92.31 42.9152V44.9047H84.0176V34.1956H92.1118V36.1824H86.4806V38.509H91.4529V40.4367H86.4806V42.9152H92.31Z" fill="#A4A4A4"/>
<path d="M94.3406 34.193H98.6283C102.131 34.193 104.532 36.306 104.532 39.5488C104.532 42.7917 102.131 44.9047 98.6283 44.9047H94.3406V34.193ZM98.407 42.8689C100.533 42.8689 101.925 41.6001 101.925 39.5488C101.925 37.4976 100.533 36.2288 98.407 36.2288H96.819V42.8689H98.407Z" fill="#A4A4A4"/>
<path d="M108.892 34.1956H106.414V44.9047H108.892V34.1956Z" fill="#A4A4A4"/>
<path d="M118.592 42.609H113.834L112.925 44.9021H110.496L115.064 34.193H117.406L122 44.9021H119.511L118.592 42.609ZM117.846 40.7276L116.22 36.6277L114.596 40.7276H117.846Z" fill="#A4A4A4"/>
<path d="M26.0942 42.609H21.3381L20.4296 44.9021H18L22.5683 34.193H24.9103L29.4915 44.9021H27.0027L26.0942 42.609ZM25.3479 40.7276L23.7239 36.6277L22.0999 40.7276H25.3479Z" fill="#A4A4A4"/>
<path d="M81.9689 34.1569H79.8894L76.1704 40.1202L72.4488 34.1569H70.3899V44.9252H72.7242V38.3186L75.8538 43.2678H76.487L79.6217 38.3186L79.6346 44.9252H81.9689V34.1569Z" fill="#A4A4A4"/>
</svg>
