<svg width="140" height="80" viewBox="0 0 140 80" fill="none" xmlns="http://www.w3.org/2000/svg">
<rect width="140" height="80" fill="white"/>
<g clip-path="url(#clip0_3_119)">
<path d="M104.449 26.0168H104.76C105.13 26.2556 105.27 26.7043 105.474 27.0759C108.283 32.4184 111.096 37.7586 113.909 43.0997C115.268 45.7017 116.655 48.2898 118 50.8988V50.9497C117.92 51.0967 117.856 51.3278 117.649 51.3072C116.283 51.3116 114.915 51.3144 113.55 51.3059C113.222 51.3193 113.133 50.9561 113.01 50.7223C112.761 50.2432 112.493 49.7762 112.269 49.2845C111.886 48.624 111.584 47.9203 111.2 47.2606C110.906 46.6078 110.525 46.0022 110.229 45.3508C110.045 44.9565 109.805 44.5933 109.623 44.1985C109.354 43.6121 109.005 43.0688 108.743 42.4782C108.349 41.7844 108.022 41.0546 107.628 40.3607C107.351 39.739 106.982 39.1661 106.702 38.5457C106.507 38.119 106.245 37.7268 106.051 37.2989C105.797 36.7435 105.461 36.2326 105.219 35.6717C105.099 35.4548 105.016 35.1531 104.763 35.0662C104.6 35.0528 104.371 35.0112 104.28 35.1885C103.854 35.883 103.542 36.6409 103.131 37.3446C102.838 37.9968 102.454 38.6021 102.159 39.2536C101.984 39.6322 101.753 39.9812 101.577 40.3585C101.442 40.6419 101.306 40.9244 101.147 41.1951C100.867 41.6754 100.666 42.199 100.382 42.6773C100.135 43.0969 99.9585 43.5555 99.7113 43.9751C99.4518 44.4082 99.2709 44.8829 99.0155 45.3175C98.7232 45.812 98.5171 46.3525 98.2241 46.8463C97.9771 47.2661 97.8018 47.7238 97.5539 48.1435C97.2943 48.5766 97.1134 49.0513 96.858 49.4859C96.583 49.9513 96.3812 50.4558 96.1223 50.9292C96.0339 51.0698 95.949 51.2464 95.775 51.2873C95.5078 51.3353 95.2343 51.3071 94.9643 51.3106C93.9197 51.3099 92.8749 51.3065 91.8304 51.3142C91.6412 51.3106 91.4143 51.3135 91.2848 51.1482C91.2445 50.968 91.259 50.773 91.3557 50.6141C95.617 42.5072 99.8871 34.4056 104.152 26.3001C104.218 26.1759 104.335 26.0939 104.449 26.0168L104.449 26.0168ZM23.0002 29.9102C23.2925 29.5974 23.7358 29.6997 24.1136 29.6892C27.9184 29.6912 31.7222 29.6892 35.5273 29.6899C36.6463 29.6517 37.7792 29.8233 38.8295 30.2212C40.5972 30.8648 42.1185 32.3102 42.6906 34.1486C42.9439 34.8458 42.9988 35.5963 43.0498 36.331C43.0032 37.118 42.9092 37.9178 42.6162 38.6547C42.2646 39.5172 41.7573 40.3481 41.0009 40.9027C40.8186 41.0814 40.5359 41.1571 40.403 41.3818C41.4095 41.7506 42.2752 42.4492 42.9279 43.3019C44.0011 44.7262 44.2997 46.6112 44.1173 48.3598C44.0213 49.5128 43.6949 50.6573 43.1019 51.6501C42.7061 52.2674 42.2175 52.8333 41.6245 53.2629C40.3301 54.2379 38.728 54.6872 37.1461 54.8722C36.8218 54.9169 36.4891 54.8928 36.1709 54.9832H23.2903C23.1831 54.8956 23.0836 54.7982 23 54.6864V29.9102M27.2703 33.5324C27.1485 33.6836 27.1819 33.8899 27.1751 34.0709C27.186 35.948 27.1584 37.8258 27.1888 39.7024C27.3023 39.846 27.4763 39.9442 27.6607 39.9342C30.1202 39.9362 32.5805 39.9313 35.0397 39.937C35.3821 39.9519 35.719 39.8791 36.0566 39.8311C36.822 39.718 37.5869 39.4107 38.1208 38.8244C38.4861 38.4556 38.6525 37.9439 38.7755 37.4494C38.8054 37.049 38.9315 36.6468 38.8216 36.2469C38.7687 35.5702 38.4979 34.9125 38.0462 34.4101C37.4136 33.8279 36.5666 33.5496 35.7316 33.4471C35.4644 33.4203 35.1929 33.4606 34.9277 33.4069C34.5979 33.3347 34.2603 33.3694 33.9262 33.3653C31.9073 33.363 29.8884 33.3673 27.8703 33.3624C27.66 33.3624 27.4498 33.4211 27.2703 33.5326M27.4073 43.702C27.3252 43.7282 27.2466 43.7776 27.2216 43.8673C27.0733 44.1584 27.1039 44.4933 27.1054 44.8097C27.1082 46.7413 27.1033 48.673 27.1074 50.6043C27.1115 50.8806 27.2632 51.272 27.5912 51.2381C30.1898 51.2394 32.7891 51.2366 35.3875 51.2389C35.6486 51.2479 35.9095 51.2389 36.1671 51.1908C37.0814 51.1116 38.028 50.9258 38.7985 50.391C39.4177 49.9459 39.7582 49.2098 39.8904 48.4686C40.0657 47.613 40.0003 46.7178 39.7554 45.8828C39.5361 45.2385 39.1032 44.6515 38.4963 44.3392C37.6947 43.8912 36.7747 43.7571 35.8761 43.6792C33.1377 43.6799 30.3992 43.6799 27.6605 43.6792C27.5755 43.6772 27.4905 43.6848 27.4072 43.7018L27.4073 43.702ZM48.3598 29.7097C48.6493 29.6617 48.9451 29.6956 49.2374 29.6899C53.274 29.6892 57.311 29.692 61.3484 29.6885C63.1731 29.7832 65.0271 30.4309 66.3452 31.7522C67.3475 32.7576 67.9515 34.1373 68.0962 35.5524C68.0934 36.1126 68.1192 36.6744 68.081 37.2339C67.9077 38.435 67.4427 39.6444 66.5519 40.4851C66.3001 40.7529 66.0266 41.0017 65.7065 41.1824C65.6404 41.2389 65.5003 41.2672 65.5415 41.3818C66.5659 41.8056 67.4908 42.5142 68.1276 43.4376C68.4011 43.8185 68.5979 44.2479 68.7874 44.6769C69.1638 45.5395 69.2341 46.494 69.2891 47.4238C69.2425 48.1429 69.2 48.8685 69.031 49.5722C68.7846 50.7986 68.1562 51.9354 67.2786 52.81C66.9202 53.1104 66.5583 53.4113 66.156 53.6501C65.0216 54.3551 63.7015 54.6809 62.3943 54.856C62.0298 54.919 61.654 54.8851 61.294 54.9832H48.4219C48.2216 54.8645 48.0275 54.6774 48.0531 54.4194C48.0547 46.3645 48.0547 38.3092 48.0531 30.2544C48.0448 30.0318 48.1757 29.8226 48.3601 29.7097M52.6722 33.3891C52.5385 33.421 52.3932 33.4704 52.3214 33.5996C52.1969 33.7784 52.2323 34.0073 52.2275 34.2128C52.2338 35.9325 52.2295 37.6522 52.2288 39.3711C52.2171 39.5952 52.364 39.7887 52.5322 39.9165C53.0326 39.9612 53.5372 39.9216 54.0397 39.9342C56.1749 39.9329 58.3093 39.937 60.4446 39.9329C61.1608 39.8509 61.902 39.7561 62.5304 39.369C63.1777 39.0738 63.5868 38.4343 63.8067 37.7722C63.9723 37.2368 63.9153 36.6709 63.9181 36.1191C63.8708 35.7277 63.7477 35.3427 63.5722 34.9908C63.0704 34.1168 62.1039 33.6351 61.1448 33.493C60.7676 33.3969 60.3758 33.476 59.9971 33.3969C59.7076 33.3398 59.4126 33.368 59.121 33.3652C57.0554 33.363 54.99 33.3673 52.9248 33.3624C52.8392 33.363 52.7551 33.3714 52.6722 33.3891ZM52.5322 43.7033C52.3249 43.7491 52.2199 43.971 52.231 44.1716C52.2295 46.1978 52.2323 48.2233 52.2295 50.2489C52.2323 50.5069 52.2044 50.776 52.3032 51.0212C52.3528 51.1944 52.5615 51.2337 52.716 51.2373C55.3606 51.2409 58.0057 51.2345 60.6512 51.2409C61.0007 51.2586 61.3424 51.1674 61.6904 51.1512C62.5817 51.0381 63.497 50.7775 64.1845 50.1628C64.7267 49.6082 64.9919 48.8317 65.0504 48.0645C65.1198 47.6844 65.136 47.2951 65.0588 46.915C64.9912 46.0545 64.6948 45.136 63.9918 44.5985C63.1415 43.9321 62.039 43.7781 61.0007 43.6792C58.356 43.68 55.7106 43.68 53.066 43.6792C52.8879 43.6835 52.7069 43.6643 52.5322 43.7033L52.5322 43.7033ZM69.4419 30.2261C69.316 29.9675 69.5652 29.6566 69.836 29.6884C71.1358 29.6876 72.4366 29.6948 73.7373 29.6856C73.8884 29.6778 74.0553 29.6997 74.1361 29.8495C74.4444 30.3299 74.6936 30.8477 74.9414 31.3628C75.0979 31.692 75.2982 31.9973 75.455 32.3266C75.7438 32.9617 76.1176 33.5515 76.4036 34.1881C76.7863 34.8486 77.089 35.5523 77.4719 36.2123C77.8002 36.9258 78.213 37.5943 78.5373 38.3098C78.8192 38.8101 79.0752 39.3237 79.3307 39.8387C79.6549 40.3721 79.8819 40.9572 80.202 41.4934C80.4254 41.8876 80.591 42.3122 80.8221 42.7021C81.1151 43.196 81.3203 43.7373 81.6134 44.2303C81.9036 44.725 82.1006 45.2704 82.413 45.7514C82.553 46.0185 83.0109 46.0193 83.1515 45.7514C83.4625 45.2696 83.6601 44.725 83.9504 44.2303C84.2092 43.798 84.3915 43.3238 84.6463 42.8886C84.9387 42.3941 85.1445 41.8537 85.4377 41.3592C85.7272 40.8455 85.9526 40.2965 86.2581 39.7914C86.6144 39.0333 87.0445 38.3149 87.3961 37.5547C87.6843 37.0579 87.927 36.5372 88.1901 36.0273C88.4978 35.5236 88.7106 34.9689 89.012 34.4624C89.2724 34.0088 89.4631 33.5191 89.7268 33.0676C89.9939 32.6197 90.1806 32.1287 90.4484 31.6808C90.8062 31.0696 91.0373 30.3816 91.4605 29.81C91.5565 29.6595 91.7449 29.6934 91.8967 29.6849C93.1737 29.6969 94.4515 29.6871 95.7286 29.6885C95.902 29.6687 96.0481 29.7861 96.1302 29.9323C96.2115 30.176 96.037 30.3978 95.9268 30.5985C91.8662 38.3007 87.8172 46.0091 83.7578 53.7123C83.5254 54.1523 83.329 54.6306 82.9694 54.9832H82.6632C82.2017 54.69 82.0464 54.1184 81.7827 53.665C77.6677 45.8533 73.5614 38.0349 69.4421 30.2261H69.4419Z" fill="#A4A4A4"/>
</g>
<defs>
<clipPath id="clip0_3_119">
<rect width="95" height="29" fill="white" transform="translate(23 26)"/>
</clipPath>
</defs>
</svg>
