<svg width="140" height="80" viewBox="0 0 140 80" fill="none" xmlns="http://www.w3.org/2000/svg">
<rect width="140" height="80" fill="white"/>
<path d="M16.2787 43.5571H19.4322C20.0263 43.5618 20.6202 43.5308 21.2106 43.464C21.6475 43.4249 22.0719 43.2967 22.4584 43.0871C22.7824 42.9017 23.0407 42.618 23.1966 42.276C23.3749 41.8346 23.4554 41.3591 23.4325 40.8828C23.4516 40.4215 23.3576 39.9626 23.1589 39.5469C22.9799 39.2128 22.7065 38.9404 22.3735 38.7644C21.9952 38.5718 21.5865 38.4474 21.1658 38.3971C20.6396 38.3268 20.1092 38.2934 19.5785 38.2969H16.2763L16.2787 43.5571ZM16.2787 37.2043H19.4157C19.9612 37.2147 20.5059 37.1595 21.0385 37.0397C21.421 36.9543 21.7812 36.7876 22.0951 36.5506C22.3527 36.349 22.5508 36.0801 22.6683 35.7729C22.7896 35.4269 22.8487 35.0617 22.8428 34.6947C22.8537 34.3279 22.7853 33.9632 22.6424 33.6259C22.5044 33.3327 22.2815 33.0889 22.0032 32.927C21.6504 32.7273 21.2641 32.5955 20.8639 32.5381C20.2941 32.4515 19.7183 32.4116 19.1421 32.4188H16.2787V37.2043ZM15.0404 44.6258V31.3525H19.7789C20.4432 31.3392 21.106 31.4195 21.7484 31.591C22.2371 31.7216 22.6934 31.954 23.0881 32.2733C23.4259 32.5561 23.6865 32.9215 23.8453 33.3349C24.0067 33.7677 24.0867 34.2273 24.0811 34.6899C24.0894 35.0998 24.028 35.5081 23.8995 35.897C23.7942 36.2058 23.6343 36.4927 23.4278 36.7439C23.2423 36.9638 23.0164 37.1453 22.7626 37.2782C22.5187 37.4068 22.2572 37.4977 21.9866 37.5478V37.5836C22.8987 37.7204 23.5764 38.083 24.0198 38.6714C24.4796 39.3127 24.7137 40.0912 24.6849 40.8828C24.7017 41.4834 24.5932 42.0809 24.3665 42.6362C24.1747 43.0903 23.8739 43.4887 23.4915 43.7956C23.0887 44.1035 22.6255 44.3207 22.1329 44.4326C21.5685 44.5656 20.9905 44.6304 20.4111 44.6258H15.0404Z" fill="#A4A4A4"/>
<path d="M30.2442 31.3528H29.0035V44.6262H30.2442V31.3528Z" fill="#A4A4A4"/>
<path d="M34.9992 44.6262V31.3529H43.7309V32.4216H36.2399V37.2142H43.0021V38.2854H36.2399V43.5575H43.9126V44.6262H34.9992Z" fill="#A4A4A4"/>
<path d="M48.7428 33.049H48.7074V44.6262H47.4667V31.3528H48.8701L56.4532 42.9491H56.491V31.3528H57.7292V44.6262H56.2905L48.7428 33.049Z" fill="#A4A4A4"/>
<path d="M61.1188 44.6262V43.5765L69.5227 32.4216H61.8311V31.3528H71.0534V32.4025L62.6519 43.5574H71.1077V44.6262H61.1188Z" fill="#A4A4A4"/>
<path d="M80.1482 43.908C80.9093 43.9276 81.6638 43.7598 82.3465 43.4189C82.9422 43.1083 83.4595 42.6635 83.8584 42.1188C84.2652 41.5539 84.5621 40.916 84.7334 40.2389C84.924 39.5112 85.0192 38.7613 85.0165 38.0084C85.0269 37.1714 84.9133 36.3375 84.6792 35.5346C84.4793 34.8519 84.1474 34.2162 83.7027 33.6643C83.2867 33.1493 82.7566 32.7407 82.1554 32.4715C81.5099 32.1941 80.8142 32.056 80.1128 32.066C79.3568 32.0474 78.608 32.2187 77.9334 32.5646C77.3369 32.8813 76.8198 33.3317 76.4215 33.8814C76.0169 34.4519 75.7202 35.0933 75.5465 35.7731C75.3557 36.5009 75.2605 37.2508 75.2634 38.0037C75.2599 38.762 75.3551 39.5176 75.5465 40.2509C75.7188 40.9283 76.0157 41.5668 76.4215 42.1331C76.8189 42.6768 77.3367 43.1189 77.9334 43.4237C78.6235 43.7592 79.3829 43.9228 80.1482 43.9008V43.908ZM74.0157 38.0013C74.0085 37.0767 74.1405 36.1565 74.4073 35.2722C74.648 34.4632 75.0413 33.709 75.5654 33.0512C76.0764 32.4149 76.7209 31.9016 77.4523 31.5483C78.2744 31.1652 79.1726 30.9783 80.0775 31.002C81.0023 30.9825 81.9201 31.1682 82.7663 31.5459C83.5133 31.8901 84.1736 32.4006 84.6981 33.0393C85.2276 33.6981 85.6235 34.4561 85.8632 35.2698C86.1295 36.1575 86.2615 37.0808 86.2548 38.0084C86.2615 38.9235 86.1295 39.8343 85.8632 40.7089C85.6225 41.5179 85.2293 42.2721 84.7051 42.9299C84.1881 43.5707 83.5341 44.0846 82.7923 44.4328C81.9513 44.7979 81.0457 44.9862 80.1305 44.9862C79.2154 44.9862 78.3098 44.7979 77.4688 44.4328C76.7273 44.084 76.0734 43.5703 75.5559 42.9299C75.034 42.2756 74.6438 41.5243 74.4073 40.7184C74.1476 39.8426 74.0188 38.9324 74.0252 38.018" fill="#A4A4A4"/>
<path d="M97.8246 38.2849H94.5225C93.9925 38.2815 93.4629 38.315 92.9375 38.3851C92.5113 38.4379 92.0977 38.5663 91.7157 38.7644C91.3836 38.9407 91.1109 39.2132 90.9326 39.5469C90.7339 39.9626 90.6399 40.4215 90.659 40.8828C90.6373 41.359 90.7178 41.8343 90.8949 42.276C91.0515 42.6175 91.3096 42.901 91.6331 43.0871C92.0204 43.2967 92.4457 43.4249 92.8832 43.464C93.4729 43.5307 94.066 43.5618 94.6593 43.5571H97.8128L97.8246 38.2849ZM97.8246 32.4212H94.9588C94.3819 32.414 93.8053 32.4539 93.2347 32.5405C92.8344 32.5978 92.4482 32.7297 92.0954 32.9293C91.8183 33.092 91.5962 33.3356 91.4586 33.6283C91.3156 33.963 91.2471 34.3254 91.2581 34.6899C91.2515 35.0568 91.3098 35.422 91.4303 35.7682C91.5464 36.0807 91.7455 36.3548 92.0058 36.5602C92.322 36.7993 92.6857 36.9661 93.0719 37.0492C93.6044 37.169 94.1492 37.2243 94.6947 37.2138H97.8293L97.8246 32.4212ZM93.704 44.6258C93.1246 44.6303 92.5466 44.5654 91.9822 44.4326C91.4902 44.3211 91.0276 44.1039 90.626 43.7956C90.2401 43.4899 89.936 43.0913 89.7415 42.6362C89.514 42.081 89.4047 41.4836 89.4207 40.8828C89.3919 40.0912 89.6261 39.3127 90.0858 38.6714C90.5324 38.083 91.2101 37.7204 92.119 37.5836V37.5478C91.8492 37.4976 91.5884 37.4068 91.3454 37.2782C91.0908 37.1465 90.8647 36.9649 90.6802 36.7439C90.4722 36.4937 90.3122 36.2065 90.2085 35.897C90.0778 35.5086 90.0156 35.1 90.0245 34.6899C90.0189 34.2273 90.0989 33.7677 90.2604 33.3349C90.4191 32.9215 90.6798 32.5561 91.0175 32.2733C91.414 31.9526 91.873 31.7202 92.3643 31.591C93.0059 31.4195 93.6679 31.3392 94.3314 31.3525H99.0723V44.6258H93.704Z" fill="#A4A4A4"/>
<path d="M105.65 39.3899H110.789L108.221 32.4335L105.65 39.3899ZM102.404 44.6381L107.563 31.3529H108.978L114.009 44.6262H112.733L111.209 40.461H105.23L103.685 44.6262L102.404 44.6381Z" fill="#A4A4A4"/>
<path d="M117.644 40.6632C117.675 41.1846 117.808 41.6947 118.035 42.1637C118.232 42.5557 118.512 42.8987 118.856 43.168C119.201 43.4308 119.595 43.6213 120.014 43.7286C120.472 43.8486 120.944 43.908 121.418 43.9052C121.93 43.9159 122.441 43.8409 122.929 43.6833C123.313 43.5599 123.668 43.3568 123.97 43.0869C124.23 42.8449 124.432 42.5464 124.562 42.2138C124.69 41.8783 124.755 41.5214 124.753 41.1617C124.773 40.7174 124.652 40.2783 124.406 39.9093C124.167 39.5775 123.856 39.305 123.498 39.1125C123.095 38.9025 122.669 38.7423 122.229 38.6354C121.757 38.5137 121.257 38.3968 120.752 38.2776C120.248 38.1583 119.755 38.0223 119.276 37.8625C118.819 37.7119 118.388 37.4897 118 37.204C117.625 36.9306 117.316 36.5751 117.096 36.1639C116.848 35.6646 116.729 35.1098 116.75 34.5513C116.75 34.0931 116.847 33.6403 117.033 33.2225C117.227 32.7842 117.514 32.3942 117.872 32.0798C118.281 31.7257 118.755 31.4566 119.266 31.2878C119.89 31.0833 120.543 30.9865 121.198 31.0015C121.858 30.9884 122.516 31.0943 123.139 31.314C123.653 31.499 124.123 31.7917 124.517 32.1728C124.876 32.5289 125.156 32.9594 125.335 33.4348C125.524 33.9228 125.621 34.4423 125.621 34.9664H124.441C124.452 34.5152 124.362 34.0675 124.177 33.6567C124.012 33.3019 123.765 32.992 123.458 32.7525C123.147 32.5155 122.794 32.3406 122.418 32.2372C122.026 32.1252 121.621 32.069 121.215 32.0703C120.671 32.0556 120.13 32.1463 119.62 32.3374C119.23 32.4884 118.878 32.7246 118.59 33.0293C118.343 33.2967 118.163 33.6185 118.061 33.9692C117.965 34.3047 117.946 34.6582 118.007 35.0021C118.061 35.3935 118.24 35.7563 118.516 36.0351C118.8 36.3041 119.129 36.5191 119.488 36.6697C119.902 36.8455 120.332 36.9813 120.771 37.0752C121.243 37.1802 121.72 37.2915 122.203 37.4092C122.686 37.5269 123.157 37.6645 123.618 37.8219C124.053 37.9714 124.463 38.1896 124.831 38.4684C125.188 38.7456 125.478 39.1023 125.677 39.5109C125.906 40.0093 126.016 40.5552 125.998 41.1045C125.998 42.3339 125.578 43.2881 124.739 43.9672C123.899 44.6463 122.72 44.9843 121.201 44.9811C120.562 44.9859 119.926 44.8959 119.314 44.7139C118.76 44.5512 118.245 44.2751 117.802 43.9028C117.374 43.5367 117.034 43.0765 116.809 42.5573C116.559 41.9603 116.437 41.3162 116.453 40.6679L117.644 40.6632Z" fill="#A4A4A4"/>
<path d="M24.7153 46.9495H15V48.078H24.7153V46.9495Z" fill="#A4A4A4"/>
<path d="M99.4046 46.9495H89.6893V48.078H99.4046V46.9495Z" fill="#A4A4A4"/>
</svg>
