<svg width="140" height="80" viewBox="0 0 140 80" fill="none" xmlns="http://www.w3.org/2000/svg">
<rect width="140" height="80" fill="white"/>
<path fill-rule="evenodd" clip-rule="evenodd" d="M32.3939 45.6002C32.2884 46.4734 31.9934 47.1558 31.7349 47.1234C31.4764 47.0909 31.3523 46.3575 31.4574 45.4843C31.5629 44.6104 31.8579 43.9287 32.1168 43.9612C32.3752 43.9924 32.499 44.7279 32.3939 45.6002ZM25.7292 45.9357C26.0554 45.9357 26.3185 46.2044 26.3185 46.5351C26.3185 46.8658 26.0554 47.1348 25.7292 47.1348C25.403 47.1348 25.1395 46.8658 25.1395 46.5351C25.1395 46.2044 25.403 45.9357 25.7292 45.9357ZM33.1646 49.2728C38.2416 37.7179 27.6832 37.4283 29.5668 48.9816C27.8265 50.0973 25.8487 50.2899 25.1095 48.9575C31.2589 49.2969 28.3274 41.3513 24.0842 44.5724C23.2497 41.8597 25.7767 39.5833 28.9946 41.0605V38.0087C24.9199 36.2165 18.2937 39.7284 22.1777 47.189C21.2485 52.4694 26.8261 54.2141 30.9965 51.3561C31.7349 52.1549 33.6185 52.761 35.3826 51.55V49.2233C34.3806 50.0973 32.6648 49.9267 33.1646 49.2728ZM114.604 41.4245L113.269 39.1706L107.859 42.732L109.479 44.7675L114.604 41.4245ZM105.405 48.2453C105.059 48.2453 104.78 47.8157 104.78 47.2864C104.78 46.7562 105.059 46.3274 105.405 46.3274C105.749 46.3274 106.027 46.7562 106.027 47.2864C106.027 47.8157 105.749 48.2453 105.405 48.2453ZM99.5627 45.1219C99.4487 45.9464 99.1536 46.5853 98.9045 46.5497C98.6566 46.5153 98.5472 45.8174 98.6612 44.9938C98.7753 44.1693 99.0688 43.5304 99.3179 43.5648C99.5674 43.6004 99.6768 44.2983 99.5627 45.1219ZM92.3464 55.1058C92.0494 55.0844 91.8276 54.7766 91.8525 54.4182C91.8782 54.059 92.1374 53.7868 92.436 53.807C92.7318 53.8287 92.9529 54.1361 92.9295 54.4946C92.9035 54.8534 92.6434 55.1276 92.3464 55.1058ZM117.01 44.1376C114.366 43.9683 110.075 47.9399 107.907 48.5219C110.361 42.4408 100.161 42.1758 102.615 49.6122C101.567 50.0973 100.637 49.7325 100.256 49.1509C102.52 46.0995 103.426 41.2547 99.6838 40.6249C97.3954 40.2617 95.1078 44.2828 96.8715 49.0789C96.3705 49.2969 95.3456 49.636 95.3456 49.636V46.124H92.8439C92.1771 48.0127 90.3414 49.0061 90.0082 48.643C89.603 47.3101 91.3422 45.8566 94.7267 45.639V42.95C90.3414 43.1688 87.5054 45.5183 87.0764 48.1587C86.9807 52.0097 90.436 51.768 92.557 50.2179V51.0649C88.4108 52.664 88.5057 57.4851 91.9611 57.7747C95.1549 58.0176 95.5842 54.8202 95.3456 52.9062L98.063 50.9921C99.3642 53.2377 103.664 52.6541 105.5 51.1852C106.358 51.8637 108.132 51.5377 109.17 50.9443L115.127 47.2128C116.915 46.0754 117.416 47.8434 116.844 48.4724C115.962 49.3934 114.27 49.9267 113.888 50.0233V52.7368C120.681 52.3978 121.944 44.0403 117.01 44.1376ZM75.2242 51.5903C75.1724 53.0846 74.9206 54.2869 74.6617 54.2778C74.4017 54.2683 74.2328 53.0506 74.2845 51.5571C74.3355 50.064 74.587 48.8609 74.847 48.8696C75.1074 48.8787 75.2752 50.0973 75.2242 51.5903ZM81.094 45.3732C80.14 43.1917 78.1863 42.9021 76.9944 43.0473L76.2794 34.1815L73.8248 34.2539L74.6115 44.3066C70.9638 48.038 70.6551 58.1149 74.564 58.3087C78.8048 57.8969 77.423 48.1346 77.328 47.3101C76.8033 45.3245 78.9492 46.1482 79.14 47.553L79.3774 52.107H81.9036V48.2798C81.9274 46.6324 83.8347 46.6324 83.8585 48.328V51.4285H86.5275V48.3759C86.0994 42.9986 82.1426 43.9196 81.094 45.3732ZM51.2316 45.9812C50.9926 45.9812 50.7984 45.785 50.7984 45.5425C50.7984 45.2988 50.9926 45.1025 51.2316 45.1025C51.4702 45.1025 51.6633 45.2988 51.6633 45.5425C51.6633 45.785 51.4702 45.9812 51.2316 45.9812ZM56.5935 46.4378C55.9259 45.4697 54.901 45.1057 53.757 45.1057C50.9926 39.4867 45.988 46.4627 50.5403 47.9162C51.7073 48.0614 51.0163 49.3207 49.9677 49.2483C48.8712 49.2004 48.7992 47.6974 48.8474 46.778C48.7279 44.864 45.3446 45.8566 45.9164 48.5706C38.2891 54.5773 35.525 38.5408 45.6295 41.0118V38.2999C31.5212 36.3131 34.9049 59.083 47.4415 50.8956C50.6349 52.882 53.5663 50.2417 53.5663 48.2798C54.5196 48.2552 54.9723 48.6908 54.9723 49.3448V51.6706H57.0696V49.2483C57.0458 48.3996 57.6418 48.038 58.4035 47.9886V45.5662C57.6418 45.3732 56.6655 45.9543 56.5935 46.4378ZM65.4856 46.6395C65.2878 46.4983 65.3606 46.0445 65.649 45.6263C65.9363 45.2078 66.3318 44.9823 66.5299 45.1235C66.7277 45.264 66.6549 45.7185 66.366 46.1363C66.078 46.5553 65.6833 46.78 65.4856 46.6395ZM65.8405 48.9096C73.5146 45.5183 66.4127 38.5408 62.8375 45.9543H62.1228L62.5514 40.3333L60.24 40.3583L59.906 45.6635H59.1202V48.038L59.6678 48.0614V51.9381H61.98V49.0061C61.9562 48.6671 62.5763 48.4483 62.9562 49.4666C64.1481 53.0035 68.0807 53.0755 69.6061 51.5262V48.8131C68.3905 49.7088 66.8654 50.3144 65.8405 48.9096Z" fill="#A4A4A4"/>
<path fill-rule="evenodd" clip-rule="evenodd" d="M25.6288 30.1548L29.2387 22.1071H27.1418L25.1823 26.6382L23.1201 22.1071H20.9998L24.7822 30.1548H25.6288Z" fill="#A4A4A4"/>
<path fill-rule="evenodd" clip-rule="evenodd" d="M31.9321 30.1548H33.9052V22.1071H31.9321V30.1548Z" fill="#A4A4A4"/>
<path fill-rule="evenodd" clip-rule="evenodd" d="M40.1516 27.1575L41.3119 24.031L42.5894 27.1575H40.1516ZM42.4267 22.1071H40.1399L36.9465 30.1548H39.0371L39.6288 28.5616H43.1706L43.8206 30.1548H45.9455L42.4267 22.1071Z" fill="#A4A4A4"/>
<path fill-rule="evenodd" clip-rule="evenodd" d="M50.0219 31.8068C50.6022 31.2173 50.7988 30.379 50.7988 29.4113V22.107H48.8253V29.4469C48.8253 30.4491 48.3964 31.0635 47.4209 30.8981V32.4798C48.779 32.5858 49.4995 32.3377 50.0219 31.8068Z" fill="#A4A4A4"/>
<path fill-rule="evenodd" clip-rule="evenodd" d="M60.1796 28.6797H56.3136V26.744H59.9235V25.2699H56.3136V23.5826H60.0975V22.1069H54.3393V30.155H60.1796V28.6797Z" fill="#A4A4A4"/>
<path fill-rule="evenodd" clip-rule="evenodd" d="M67.1648 28.0415C67.1648 28.5135 66.7588 28.7849 66.0037 28.7849C65.1341 28.7849 64.437 28.5135 63.2988 27.7464V29.4812C64.089 29.8946 64.7733 30.2598 66.1543 30.2598C67.9192 30.2598 69.1963 29.3637 69.1963 27.8176C69.1963 25.0087 65.1676 25.3517 65.1676 24.136C65.1676 23.7344 65.6211 23.4753 66.3291 23.4753C67.0025 23.4753 67.6872 23.6758 68.8363 24.1949V22.6259C67.8382 22.1891 67.0368 22 66.1543 22C64.3206 22 63.1361 22.9206 63.1361 24.3132C63.1361 27.204 67.1648 26.7201 67.1648 28.0415Z" fill="#A4A4A4"/>
</svg>
