<svg width="140" height="80" viewBox="0 0 140 80" fill="none" xmlns="http://www.w3.org/2000/svg">
<rect width="140" height="80" fill="white"/>
<g clip-path="url(#clip0_3_133)">
<path d="M119.358 27H124V27.5753C123.002 31.7353 123.565 36.0226 123.454 40.2434C123.521 44.0881 123.075 47.9826 124 51.7664V52.3306C122.451 52.3417 120.901 52.3472 119.352 52.3528C119.363 43.9 119.352 35.4528 119.358 27Z" fill="#A4A4A4"/>
<path d="M25.2981 27.2877C26.9198 27.2821 28.5471 27.2821 30.1744 27.2821C30.1131 33.2511 30.1855 39.22 30.1409 45.1834C30.1019 47.5732 29.6951 50.4166 27.4381 51.7664C23.9661 53.8685 19.4186 52.2255 17 49.2715V49.0059C18.1202 47.966 19.2292 46.9149 20.3326 45.8528C21.4416 46.8208 22.5841 48.0655 24.1891 48.0711C25.3538 47.6396 25.2535 46.3008 25.2869 45.2996C25.2925 39.2919 25.2646 33.2898 25.2981 27.2877Z" fill="#A4A4A4"/>
<path d="M88.4671 27.2821C90.0665 27.2766 91.666 27.3375 93.2654 27.3983C93.1985 29.6111 93.2208 31.8294 93.2152 34.0421C94.1125 34.0311 95.0097 34.0255 95.9069 34.0145C95.8958 35.4085 95.8902 36.797 95.8401 38.1911C94.9651 38.1689 94.0902 38.1523 93.2208 38.1302C93.2208 42.9043 93.2152 47.6783 93.2264 52.4523C91.6437 52.5132 90.0665 52.5021 88.4894 52.4358C88.495 44.0494 88.5395 35.6685 88.4671 27.2821Z" fill="#A4A4A4"/>
<path d="M32.671 41.8255C33.2283 37.0847 37.7925 33.0132 42.6855 33.5443C47.4727 33.9426 51.5744 38.2574 51.6412 43.0315C51.6747 46.1847 51.6357 49.3434 51.6468 52.4966C48.069 52.4357 44.4856 52.5796 40.9078 52.4357C35.7807 52.0872 31.7292 46.8319 32.671 41.8255ZM38.2384 46.3174C40.4508 48.9396 44.2292 47.7447 47.2052 47.9383C47.1662 46.2123 47.2386 44.4864 47.1662 42.766C46.9377 39.6736 43.4435 37.0349 40.4229 38.2574C37.2018 39.2919 35.8922 43.8226 38.2384 46.3174Z" fill="#A4A4A4"/>
<path d="M100.259 36.0723C104.121 32.0119 111.667 32.5872 114.95 37.1013C116.555 39.1591 116.911 41.8532 116.872 44.3813C111.873 44.4034 106.869 44.3094 101.87 44.4311C102.544 46.5221 104.3 48.5081 106.674 48.4694C108.569 48.746 110.307 47.883 111.751 46.7489C113.072 47.374 114.392 47.9936 115.724 48.5911C112.453 53.2213 105.219 54.0289 100.85 50.5328C96.4865 47.114 96.3527 39.8728 100.259 36.0723ZM102.171 40.5587C105.526 40.6306 108.886 40.6749 112.241 40.5311C111.205 38.7719 109.466 37.2562 107.298 37.3225C105.041 37.1511 103.219 38.7221 102.171 40.5587Z" fill="#A4A4A4"/>
<path d="M55.2079 34.1306C59.9616 34.0809 64.7153 34.1251 69.469 34.103C66.6881 38.9434 63.846 43.7562 61.1375 48.6353C63.7234 48.4417 66.3259 48.5081 68.9173 48.5081C68.9117 49.8523 68.8894 51.1911 68.8059 52.5298C63.846 52.386 58.8805 52.5243 53.9206 52.5187C56.6346 47.706 59.4434 42.9485 62.1797 38.1523C59.8613 38.1579 57.5374 38.1689 55.2191 38.1413C55.2135 36.8026 55.2079 35.4694 55.2079 34.1306Z" fill="#A4A4A4"/>
<path d="M71.3136 34.1417C76.0618 34.0643 80.8099 34.1362 85.558 34.103C82.7771 38.9379 79.9238 43.7396 77.2432 48.6298C79.8012 48.4472 82.3759 48.5136 84.9394 48.5081C84.9561 49.8357 84.9561 51.1634 84.9394 52.4911C79.9572 52.5077 74.975 52.4357 69.9929 52.5298C72.6902 47.6894 75.5936 42.9596 78.2464 38.086C76.0283 38.1413 73.7992 38.2574 71.5811 38.1136C70.9681 36.9851 71.4641 35.4306 71.3136 34.1417Z" fill="#A4A4A4"/>
<path opacity="0.94" d="M123.454 40.2434C123.565 36.0226 123.002 31.7353 124 27.5753V51.7664C123.075 47.9826 123.521 44.0881 123.454 40.2434Z" fill="#A4A4A4"/>
</g>
<defs>
<clipPath id="clip0_3_133">
<rect width="107" height="26" fill="white" transform="translate(17 27)"/>
</clipPath>
</defs>
</svg>
