<svg width="140" height="80" viewBox="0 0 140 80" fill="none" xmlns="http://www.w3.org/2000/svg">
<rect width="140" height="80" fill="white"/>
<path d="M125.876 35.375H115.236C114.053 35.375 112.996 36.25 112.871 37.4375C112.684 39.0625 111.44 40 109.947 40.0625C108.329 40.0625 107.022 38.75 107.022 37.125C107.022 35.5 108.329 34.1875 109.947 34.1875C111.004 34.1875 111.938 34.75 112.436 35.625C112.498 35.6875 112.56 35.6875 112.622 35.625C112.933 35.25 113.307 34.9375 113.742 34.75C113.804 34.75 113.804 34.625 113.804 34.5625C112.996 33.3125 111.564 32.5 109.947 32.5C107.396 32.5 105.342 34.5625 105.28 37.1875C105.28 39.75 107.333 41.875 109.947 41.875C112.311 41.8125 114.302 40.25 114.551 37.75C114.613 37.4375 114.862 37.1875 115.236 37.1875H124.32V38.4375C124.32 39.125 124.133 40.125 123.262 40.125C122.391 40.125 122.204 39.125 122.204 38.4375V38.0625C122.204 38 122.142 37.9375 122.08 37.9375H120.587C120.524 37.9375 120.462 38 120.462 38.0625V38.375C120.462 39.0625 120.276 40.0625 119.404 40.0625C118.533 40.0625 118.347 39.0625 118.347 38.375V38.0625C118.347 38 118.284 37.9375 118.222 37.9375H116.729C116.667 37.9375 116.604 38 116.604 38.0625V38.375C116.604 40.0625 117.538 41.75 119.342 41.75C120.089 41.75 120.773 41.4375 121.209 40.875C121.707 41.4375 122.329 41.75 123.076 41.75C124.942 41.75 125.813 40 125.813 38.375V35.5C126.062 35.4375 126 35.375 125.876 35.375Z" fill="#A4A4A4"/>
<path d="M45.6711 36.9375C42.8089 36.9375 40.88 39 40.88 42.0625C40.88 45.125 42.9333 47.1875 45.8578 47.1875C47.2889 47.1875 48.5956 46.875 49.7778 45.875C49.84 45.8125 49.84 45.75 49.7778 45.75L48.8444 44.4375C48.7822 44.375 48.72 44.375 48.6578 44.4375C47.8489 45.0625 46.9156 45.375 45.9822 45.375C44.1156 45.375 42.9956 44 42.9956 42.25C42.9956 40.5625 43.8044 38.9375 45.6711 38.9375C47.04 38.9375 47.9111 39.8125 48.0978 41.3125H44.0533C43.9911 41.3125 43.9289 41.375 43.9289 41.375C43.8667 41.8125 43.8667 42.3125 43.9289 42.8125C43.9289 42.875 43.9911 42.875 44.0533 42.875H50.0889C50.1511 42.875 50.2133 42.8125 50.2133 42.75V42.0625C50.2133 39 48.3467 36.9375 45.6711 36.9375ZM35.2178 36.9375C33.8489 36.9375 32.8533 37.5 32.1689 38.375V37.25C32.1689 37.1875 32.1067 37.125 32.0444 37.125H30.1778C30.1156 37.125 30.0533 37.1875 30.0533 37.25V51.0625C30.0533 51.125 30.1156 51.1875 30.1778 51.1875H32.0444C32.1067 51.1875 32.1689 51.125 32.1689 51.0625V41.5C32.1689 40 33.5378 38.9375 34.9689 38.9375C36.7733 38.9375 37.8933 40.375 37.8933 42.0625C37.8933 43.75 36.7733 45.1875 34.9689 45.1875C34.3467 45.1875 33.7244 45 33.2889 44.6875C33.2267 44.625 33.1022 44.6875 33.1022 44.75V46.5C33.1022 46.5625 33.1644 46.625 33.2267 46.6875C33.7867 47 34.4089 47.1875 35.2178 47.1875C37.8933 47.1875 40.0711 45.0625 40.0711 42.0625C40.0711 39.0625 37.8933 36.9375 35.2178 36.9375ZM56.56 36.9375C55.5644 36.9375 54.3822 37.25 53.6356 38.375V37.25C53.6356 37.1875 53.5733 37.125 53.5111 37.125H51.6444C51.5822 37.125 51.52 37.1875 51.52 37.25V46.75C51.52 46.8125 51.5822 46.875 51.6444 46.875H53.5111C53.5733 46.875 53.6356 46.8125 53.6356 46.75V41.5C53.6356 39.8125 54.7556 38.9375 56.1244 38.9375C57.5555 38.9375 58.3644 39.875 58.3644 41.5V46.8125C58.3644 46.875 58.4267 46.9375 58.4889 46.9375H60.3556C60.4178 46.9375 60.48 46.875 60.48 46.8125V40.8125C60.48 38.5 58.8622 36.9375 56.56 36.9375ZM22.0267 32.4375C21.9644 32.4375 21.9022 32.5 21.9022 32.5625V34.5625C21.9022 34.625 21.9644 34.6875 22.0267 34.6875C24.5778 34.9375 26.4444 37 26.4444 39.8125C26.4444 42.875 24.3289 45 21.4667 45C18.6044 45 16.4889 42.875 16.4889 39.8125C16.4889 37 18.2933 34.9375 20.9067 34.6875C20.9689 34.6875 21.0311 34.625 21.0311 34.5625V32.5625C20.9067 32.5 20.8444 32.4375 20.7822 32.4375C16.7378 32.75 14 35.75 14 39.75C14 44 17.0489 47.125 21.4044 47.125C25.76 47.125 28.8089 44 28.8089 39.75C28.8089 35.75 26.0089 32.75 22.0267 32.4375ZM103.538 46.6875L99.6178 41.75L103.476 37.375C103.538 37.3125 103.476 37.1875 103.413 37.1875H101.111C101.049 37.1875 100.987 37.1875 100.924 37.25L97.8133 40.875H96.9422V32.8125C96.9422 32.75 96.88 32.6875 96.8178 32.6875H94.9511C94.8889 32.6875 94.8267 32.75 94.8267 32.8125V46.75C94.8267 46.8125 94.8889 46.875 94.9511 46.875H96.8178C96.88 46.875 96.9422 46.8125 96.9422 46.75V42.75H97.8133L100.987 46.75C101.049 46.8125 101.111 46.8125 101.173 46.8125H103.476C103.6 46.875 103.6 46.75 103.538 46.6875ZM89.3511 36.9375C88.3556 36.9375 87.1733 37.25 86.4267 38.375V37.25C86.4267 37.1875 86.3644 37.125 86.3022 37.125H84.4355C84.3733 37.125 84.3111 37.1875 84.3111 37.25V46.75C84.3111 46.8125 84.3733 46.875 84.4355 46.875H86.3022C86.3644 46.875 86.4267 46.8125 86.4267 46.75V41.5C86.4267 39.8125 87.5467 38.9375 88.9156 38.9375C90.3467 38.9375 91.1555 39.875 91.1555 41.5V46.8125C91.1555 46.875 91.2178 46.9375 91.28 46.9375H93.1467C93.2089 46.9375 93.2711 46.875 93.2711 46.8125V40.8125C93.2711 38.5 91.6533 36.9375 89.3511 36.9375ZM82.6311 37.1875H80.7644C80.7022 37.1875 80.64 37.25 80.64 37.3125V38.375C79.9556 37.5 79.0222 36.9375 77.5911 36.9375C74.9156 36.9375 72.7378 39.0625 72.7378 42.0625C72.7378 45.0625 74.8533 47.1875 77.5911 47.1875C78.4 47.1875 79.0222 47 79.5822 46.6875C79.6444 46.625 79.7067 46.5625 79.7067 46.5V44.75C79.7067 44.6875 79.5822 44.625 79.52 44.6875C79.0844 45 78.4622 45.1875 77.84 45.1875C76.0355 45.1875 74.9156 43.75 74.9156 42.0625C74.9156 40.375 76.0355 38.9375 77.84 38.9375C79.2711 38.9375 80.64 40 80.64 41.5V46.75C80.64 46.8125 80.7022 46.875 80.7644 46.875H82.6311C82.6933 46.875 82.7556 46.8125 82.7556 46.75V37.25C82.7556 37.1875 82.6933 37.1875 82.6311 37.1875ZM67.2 36.9375C66.3911 36.9375 65.7689 37.125 65.2089 37.4375C65.1467 37.5 65.0844 37.5625 65.0844 37.625V39.3125C65.0844 39.375 65.2089 39.4375 65.2711 39.375C65.7067 39.0625 66.3289 38.875 66.9511 38.875C68.7556 38.875 69.8756 40.3125 69.8756 42C69.8756 43.6875 68.7556 45.125 66.9511 45.125C65.52 45.125 64.1511 44.0625 64.1511 42.5625V32.8125C64.1511 32.75 64.0889 32.6875 64.0267 32.6875H62.16C62.0978 32.6875 62.0355 32.75 62.0355 32.8125V46.75C62.0355 46.8125 62.0978 46.875 62.16 46.875H64.0267C64.0889 46.875 64.1511 46.8125 64.1511 46.75V45.6875C64.8356 46.5625 65.7689 47.125 67.2 47.125C69.8756 47.125 72.0533 45 72.0533 42C71.9911 39.0625 69.8756 36.9375 67.2 36.9375Z" fill="#A4A4A4"/>
</svg>
