<svg width="140" height="80" viewBox="0 0 140 80" fill="none" xmlns="http://www.w3.org/2000/svg">
<rect width="140" height="80" fill="white"/>
<g clip-path="url(#clip0_3_136)">
<path d="M100 70H40V10H100V70Z" fill="#A4A4A4"/>
<path d="M60.37 62.44C60.37 62.99 60.73 63.52 61.36 63.52C62.05 63.52 62.72 63.23 63.4 62.64V60.66C61.35 60.92 60.37 61.45 60.37 62.44ZM63.45 64.19C62.6 64.75 61.68 65.02 60.69 65.02C59.13 65.02 58.21 63.98 58.21 62.59C58.21 60.72 59.93 59.73 63.47 59.33V58.87C63.47 58.26 63.01 57.91 62.16 57.91C61.31 57.91 60.62 58.25 60.12 58.87L58.64 58.02C59.42 56.93 60.6 56.39 62.2 56.39C64.38 56.39 65.59 57.34 65.59 58.87C65.59 58.87 65.59 64.91 65.59 64.92H63.64L63.45 64.19Z" fill="white"/>
<path d="M67.34 56.79L69.15 56.54L69.36 57.53C70.38 56.78 71.2 56.38 72.22 56.38C73.94 56.38 74.83 57.29 74.83 59.1V64.92H72.63V59.49C72.63 58.47 72.36 58 71.57 58C70.91 58 70.26 58.3 69.51 58.93V64.92H67.34V56.79Z" fill="white"/>
<path d="M91.02 59.64C91.02 58.52 90.39 57.87 89.34 57.87C88.35 57.87 87.73 58.5 87.64 59.64H91.02ZM89.38 65.07C86.92 65.07 85.45 63.49 85.45 60.74C85.45 57.97 86.93 56.38 89.34 56.38C91.75 56.38 93.19 57.92 93.19 60.63C93.19 60.77 93.17 60.92 93.17 61.06H87.6C87.62 62.64 88.28 63.44 89.57 63.44C90.4 63.44 90.95 63.1 91.46 62.37L93.07 63.26C92.37 64.45 91.09 65.07 89.38 65.07Z" fill="white"/>
<path d="M47.3 58.21C45.66 58.21 45.35 59.69 45.35 60.76C45.35 61.83 45.65 63.31 47.3 63.31C48.94 63.31 49.24 61.83 49.24 60.76C49.24 59.69 48.94 58.21 47.3 58.21ZM47.3 65.16C45.12 65.16 43.16 63.77 43.16 60.75C43.16 57.72 45.12 56.34 47.3 56.34C49.47 56.34 51.43 57.72 51.43 60.75C51.43 63.78 49.47 65.16 47.3 65.16Z" fill="white"/>
<path d="M52.94 56.57H55.03V57.55C55.43 57.02 56.42 56.39 57.33 56.39C57.42 56.39 57.52 56.39 57.62 56.41V58.47H57.5C56.55 58.47 55.5 58.61 55.17 59.36V64.91H52.94V56.57Z" fill="white"/>
<path d="M84.12 56.54V64.45C84.12 65.84 84.01 68.14 80.03 68.17C78.39 68.18 76.87 67.53 76.56 66.09L78.74 65.74C78.82 66.16 79.08 66.56 80.31 66.56C81.45 66.56 82 66.02 82 64.71V63.74L81.97 63.71C81.62 64.33 81.09 64.92 79.81 64.92C77.87 64.92 76.34 63.57 76.34 60.74C76.34 57.95 77.92 56.39 79.7 56.38C81.36 56.38 81.98 57.14 82.12 57.54H82.1L82.28 56.54H84.12ZM80.2 63.13C81.87 63.11 82.01 61.42 82.01 60.31C82.01 59 81.37 57.95 80.19 57.95C79.4 57.95 78.51 58.52 78.51 60.4C78.52 61.43 78.59 63.14 80.2 63.13Z" fill="white"/>
<path d="M97.64 56.16H97.18V53.86H97.16L96.26 56.16H95.97L95.07 53.86H95.06V56.16H94.6V53.4H95.3L96.12 55.49L96.93 53.4H97.63V56.16H97.64ZM94.05 53.77H93.19V56.16H92.74V53.77H91.88V53.4H94.06V53.77" fill="white"/>
</g>
<defs>
<clipPath id="clip0_3_136">
<rect width="60" height="60" fill="white" transform="translate(40 10)"/>
</clipPath>
</defs>
</svg>
