<svg width="140" height="80" viewBox="0 0 140 80" fill="none" xmlns="http://www.w3.org/2000/svg">
<rect width="140" height="80" fill="white"/>
<path d="M107.702 37.5755H109.174V32.4831L112.453 37.5755H114.009V30.0421H112.537V35.1345L109.258 30.0421H107.702V37.5755ZM99.2933 37.5755H104.591V36.2708H100.765V34.4611H104.128V33.1144H100.765V31.4309H104.591V30.0842H99.2933V37.5755ZM91.9775 37.5755H94.2059C95.4252 37.5755 96.14 36.9021 96.14 35.6395V33.5352H93.4071V34.8399H94.7104V35.5133C94.7104 35.9762 94.5002 36.1867 94.0377 36.1867H92.2298C91.7673 36.1867 91.5571 35.9762 91.5571 35.5133V32.0622C91.5571 31.5993 91.7673 31.3888 92.2298 31.3888H94.0377C94.5002 31.3888 94.7104 31.5993 94.7104 32.0622V32.1885H96.182V31.936C96.182 30.7155 95.5093 30 94.2479 30H92.0196C90.8003 30 90.0855 30.6734 90.0855 31.936V35.6395C90.0855 36.9021 90.7582 37.5755 91.9775 37.5755ZM82.8538 34.7557L83.9469 31.473L85.0401 34.7557H82.8538ZM80.3731 37.5755H81.9708L82.4754 36.0604H85.5447L86.0492 37.5755H87.6469L85.0822 30.0421H82.9799L80.3731 37.5755ZM61.495 37.5755H63.8915C64.9847 37.5755 65.5733 36.9863 65.5733 35.8921V34.9241C65.5733 33.914 65.0688 33.4511 64.0597 33.2827L61.9154 32.9039C61.495 32.8619 61.3688 32.6935 61.3688 32.3568V31.936C61.3688 31.5572 61.537 31.3888 61.9154 31.3888H63.5972C63.9756 31.3888 64.1438 31.5572 64.1438 31.936V32.1043H65.6154V31.6834C65.6154 30.5892 65.0267 30 63.9336 30H61.6632C60.57 30 59.9814 30.5892 59.9814 31.6834V32.6093C59.9814 33.6194 60.4859 34.1244 61.495 34.2507L63.6393 34.6295C64.0597 34.6716 64.2279 34.8399 64.2279 35.1766V35.7237C64.2279 36.1025 64.0597 36.2708 63.6813 36.2708H61.9154C61.537 36.2708 61.3688 36.1025 61.3688 35.7237V35.4712H59.8132V35.9341C59.8132 36.9863 60.4018 37.5755 61.495 37.5755ZM51.1099 37.5755H52.5394V34.419H53.2962L55.5666 37.5755H57.2905L54.4735 33.7877L57.2484 30.0421H55.5246L53.2962 33.1565H52.5394V30.0421H51.0678V37.5755H51.1099ZM43.71 37.5755H48.377V36.2708H45.1395V30.0421H43.6679V37.5755H43.71ZM36.6464 36.2708C36.1839 36.2708 35.9737 36.0604 35.9737 35.5974V32.0622C35.9737 31.5993 36.1839 31.3888 36.6464 31.3888H38.4544C38.9169 31.3888 39.1271 31.5993 39.1271 32.0622V35.5554C39.1271 36.0183 38.9169 36.2287 38.4544 36.2287H36.6464V36.2708ZM36.3942 37.5755H38.6225C39.8418 37.5755 40.5566 36.9021 40.5566 35.6395V31.978C40.5566 30.7575 39.8839 30.0421 38.6225 30.0421H36.3942C35.1749 30.0421 34.4601 30.7155 34.4601 31.978V35.6816C34.5021 36.9021 35.1749 37.5755 36.3942 37.5755ZM27.5227 37.5755H29.6249L32.1897 30.0421H30.592L28.5738 36.0183L26.5977 30.0421H25L27.5227 37.5755ZM70.0721 37.5755H71.8801L73.3516 32.0201L74.8232 37.5755H76.6311L78.6072 30.0421H77.0516L75.6641 35.6395L74.2346 30.0421H72.4266L70.9971 35.6395L69.6096 30.0421H68.054L70.0721 37.5755Z" fill="#A4A4A4"/>
<path d="M63.5506 46.6135V44.2146H65.737C66.1995 44.2146 66.4097 44.425 66.4097 44.888V45.9401C66.4097 46.4031 66.1995 46.6135 65.737 46.6135H63.5506ZM62.079 50.4012H63.5506V47.9182H65.9472C67.1665 47.9182 67.8813 47.2448 67.8813 45.9822V44.7196C67.8813 43.4991 67.2085 42.7837 65.9472 42.7837H62.079V50.4012ZM54.8894 50.4012H57.0337C58.253 50.4012 58.9677 49.7279 58.9677 48.4653V42.8678H57.4962V48.3811C57.4962 48.8441 57.2859 49.0545 56.8234 49.0545H55.1416C54.6791 49.0545 54.4689 48.8441 54.4689 48.3811V42.8678H52.9973V48.4653C52.9553 49.7279 53.628 50.4012 54.8894 50.4012ZM45.9338 49.0966C45.4713 49.0966 45.2611 48.8861 45.2611 48.4232V44.888C45.2611 44.425 45.4713 44.2146 45.9338 44.2146H47.7417C48.2042 44.2146 48.4145 44.425 48.4145 44.888V48.3811C48.4145 48.8441 48.2042 49.0545 47.7417 49.0545H45.9338V49.0966ZM45.7236 50.4012H47.952C49.1713 50.4012 49.886 49.7279 49.886 48.4653V44.8038C49.886 43.5833 49.2133 42.8678 47.952 42.8678H45.7236C44.5043 42.8678 43.7895 43.5412 43.7895 44.8038V48.5074C43.7895 49.7279 44.4622 50.4012 45.7236 50.4012ZM36.3055 46.4031V44.2146H38.618C39.0805 44.2146 39.2907 44.425 39.2907 44.888V45.7297C39.2907 46.1926 39.0805 46.4031 38.618 46.4031H36.3055ZM34.876 50.4012H36.3476V47.7498H37.5248L39.3748 50.4012H41.0566L39.1225 47.7077C40.1737 47.6236 40.7202 46.9502 40.7202 45.7718V44.7617C40.7202 43.5412 40.0475 42.8257 38.7862 42.8257H34.834V50.4012H34.876ZM27.6022 50.4012H29.8306C31.0499 50.4012 31.7647 49.7279 31.7647 48.4653V46.361H29.0318V47.6656H30.3351V48.339C30.3351 48.802 30.1249 49.0124 29.6624 49.0124H27.8545C27.392 49.0124 27.1818 48.802 27.1818 48.339V44.888C27.1818 44.425 27.392 44.2146 27.8545 44.2146H29.6624C30.1249 44.2146 30.3351 44.425 30.3351 44.888V45.0142H31.8067V44.7617C31.8067 43.5412 31.134 42.8257 29.8727 42.8257H27.6443C26.425 42.8257 25.7102 43.4991 25.7102 44.7617V48.4653C25.7102 49.7279 26.3409 50.4012 27.6022 50.4012Z" fill="#A4A4A4"/>
</svg>
