<svg width="140" height="80" viewBox="0 0 140 80" fill="none" xmlns="http://www.w3.org/2000/svg">
<rect width="140" height="80" fill="white"/>
<g clip-path="url(#clip0_3_121)">
<mask id="mask0_3_121" style="mask-type:luminance" maskUnits="userSpaceOnUse" x="34" y="22" width="73" height="37">
<path d="M34 22H106.433V59H34V22Z" fill="white"/>
</mask>
<g mask="url(#mask0_3_121)">
<path d="M49.4352 53.3182C49.4039 52.3747 47.9538 50.771 47.7649 49.8691C46.5042 51.6827 49.9085 53.3812 48.6577 55.2052C48.3112 54.0524 47.1241 52.7418 46.7771 51.5884C45.5164 53.4026 48.9207 55.1005 47.6705 56.9141C47.4601 55.9394 45.9266 54.3565 45.9996 53.3182C42.0077 54.4195 43.8878 57.4807 47.7226 57.3968C51.547 57.4703 53.4178 54.4195 49.4352 53.3182ZM53.1652 56.9777C53.1756 56.673 53.2283 56.4632 53.3019 56.2227C55.2138 57.1344 57.1576 55.7509 54.3841 54.7542C53.6802 54.4507 53.2074 54.0524 53.2074 53.2661C53.0603 51.8509 55.2242 51.63 56.3696 52.092C56.3531 52.3453 56.3036 52.5954 56.2225 52.836C55.5394 52.5741 54.0475 52.3851 54.058 53.2661C54.058 53.6535 54.3523 53.8738 54.8673 54.094C55.8024 54.4293 56.6952 54.9751 56.6112 55.8134C56.7479 57.3124 54.2891 57.5437 53.1652 56.9777ZM60.6036 53.4338V57.1454H59.847L59.8053 56.6944C56.9791 59.3255 55.2034 51.8093 60.6036 53.4338ZM59.7844 56.2955V53.9587C57.1999 53.2245 57.4519 57.6801 59.7844 56.2961V56.2955ZM64.8063 54.6496V57.1448H63.9865V54.786C64.1128 53.916 63.1042 53.8113 62.3267 53.979V57.1448H61.508V53.4332C62.8319 53.0355 64.9848 53.0979 64.8063 54.6496ZM67.0757 56.5262C67.3173 56.5262 67.538 56.4846 67.7165 56.4111C67.6956 56.6308 67.6643 56.8829 67.622 57.1032C66.7078 57.4177 65.5728 57.1552 65.6256 55.9498V52.0498C65.8776 51.9659 66.1933 51.9341 66.4454 51.9341V53.339H67.7373C67.7269 53.591 67.6956 53.8217 67.6638 54.042H66.4454V55.866C66.4454 56.3377 66.6765 56.5262 67.0757 56.5262ZM71.4569 53.4332V57.1448H70.7002L70.6585 56.6938C67.8318 59.3255 66.067 51.8087 71.4569 53.4332ZM70.6371 56.2955V53.9587C68.0531 53.2245 68.3045 57.6801 70.6371 56.2961V56.2955ZM75.6486 54.6496V57.1448H74.8294V54.786C74.9551 53.916 73.947 53.8113 73.1695 53.979V57.1448H72.3497V53.4332C73.6839 53.0355 75.8374 53.1089 75.6486 54.6496ZM79.809 51.9451V57.1448H79.0529L79.0106 56.673C78.8009 57.0193 78.4857 57.2396 77.9498 57.2396C75.3965 57.1344 75.7853 52.5007 79.0002 53.287V52.0602C79.2522 51.9659 79.5465 51.9451 79.809 51.9451ZM79.0002 56.2851V53.9998C76.3734 53.1297 76.626 57.7322 79.0002 56.2851ZM83.9173 55.5515H81.3009C81.4167 56.7887 82.9717 56.6522 83.8327 56.2539C83.8014 56.4736 83.7597 56.7569 83.707 56.9985C79.9874 58.5074 79.3258 53.2453 82.2887 53.2239C83.7597 53.2031 84.1172 54.4403 83.9173 55.5515ZM81.3009 54.8699H83.1502C83.2133 53.5806 81.3009 53.591 81.3009 54.8699ZM86.7851 53.2557C86.7851 53.4968 86.7538 53.8009 86.7121 53.9582C86.3068 53.9145 85.8977 53.918 85.4931 53.9686V57.1448H84.6739V53.4332C85.2197 53.2343 86.1762 53.1823 86.7851 53.2557ZM37.2795 54.9855C37.6793 55.5405 37.5634 56.4846 37.0484 56.8829C36.4806 57.4495 34.7894 57.2292 34.0015 57.2708V51.9243C34.8213 51.7671 36.2604 51.6931 36.8381 52.1862C37.5843 52.7314 37.4371 54.094 36.5542 54.4715C36.8804 54.5762 37.1115 54.7444 37.2795 54.9855ZM36.3236 52.6371C36.0188 52.3747 35.1996 52.3747 34.684 52.4481V54.2305C35.1359 54.2096 36.0084 54.3247 36.3444 54.0108C36.7228 53.7379 36.7228 52.899 36.3236 52.6371ZM36.5229 56.4424C36.9435 56.1805 36.9435 55.3208 36.5229 55.0485C36.166 54.723 35.1788 54.8282 34.6846 54.8173V56.673C35.1886 56.6522 36.166 56.7569 36.5229 56.4424ZM41.5141 53.4442L39.98 57.7634C39.7065 58.6132 39.1184 59.1786 38.2459 58.9485C38.2459 58.7699 38.2569 58.5814 38.2882 58.382C38.9394 58.5496 39.3177 58.0883 39.4858 57.4801L37.9099 53.4332H38.6242L39.7801 56.6522L40.8519 53.4338L41.5135 53.4442H41.5141ZM68.4836 29.6139C69.6284 30.736 70.2066 32.5288 70.2066 35.0032V43.4322H66.939V35.1812C66.939 33.7244 66.6238 32.6126 66.0143 31.8582C65.3944 31.1031 64.4807 30.7152 63.2826 30.7152C62.001 30.7152 61.0028 31.1558 60.2676 32.0466C59.5422 32.9375 59.1749 34.1539 59.1749 35.716V43.4322H55.9386V29.7087C55.9384 29.5007 55.9794 29.2948 56.0591 29.1026C56.1388 28.9105 56.2557 28.7359 56.4031 28.5889C56.5504 28.4419 56.7254 28.3253 56.918 28.2458C57.1106 28.1664 57.317 28.1256 57.5255 28.1258H57.5359C57.7442 28.1256 57.9506 28.1665 58.1431 28.246C58.3356 28.3255 58.5106 28.4421 58.6579 28.5891C58.8052 28.7361 58.9221 28.9107 59.0017 29.1028C59.0814 29.2949 59.1223 29.5008 59.1222 29.7087V30.1388C60.278 28.6814 61.917 27.9581 64.0393 27.9581C65.8567 27.9477 67.3382 28.5033 68.483 29.6145L68.4836 29.6139ZM102.797 23.2401L102.703 23.4603C102.692 23.4707 102.692 23.4811 102.692 23.4916C102.66 23.565 102.629 23.628 102.608 23.7014C102.555 23.817 102.514 23.9217 102.471 24.0367C102.44 24.1101 102.419 24.1732 102.387 24.2466L102.198 24.6871C102.188 24.6975 102.188 24.7079 102.188 24.7183C101.936 25.2109 101.862 25.7457 102.293 26.1752C102.723 26.6053 103.259 26.5319 103.743 26.2804C103.753 26.2804 103.763 26.27 103.774 26.27C103.848 26.2388 103.911 26.207 103.984 26.1862C104.184 26.1024 104.383 26.0185 104.594 25.9347L104.972 25.7775C106.359 25.3786 106.916 23.6806 105.865 22.6215C104.951 21.6572 103.259 22.0139 102.797 23.2401ZM99.698 25.0016C99.6662 24.9178 99.6244 24.834 99.5926 24.7501C99.5613 24.6767 99.5294 24.6137 99.5086 24.5403L99.3197 24.0997C99.267 23.9841 99.2253 23.8801 99.183 23.7644C99.183 23.754 99.1725 23.7436 99.1725 23.7332C99.1517 23.6806 99.1198 23.6176 99.099 23.5656C99.0671 23.4811 99.0254 23.3979 98.9941 23.3239C98.5839 22.0451 96.84 21.6259 95.8945 22.6012C94.8858 23.5551 95.3586 25.3161 96.672 25.704C96.7456 25.7353 96.8087 25.7671 96.8823 25.7879C97.0503 25.8613 97.2183 25.9243 97.3863 25.9977C97.4599 26.0289 97.5231 26.0498 97.5967 26.0816C97.6488 26.1024 97.712 26.1336 97.7647 26.155C97.9118 26.2174 98.059 26.2804 98.2056 26.333C99.0254 26.8464 100.118 25.8821 99.698 25.0016ZM105.234 29.5619C105.193 29.5411 105.15 29.5306 105.119 29.5098C105.088 29.4988 105.046 29.478 105.014 29.4676L104.478 29.2479C104.352 29.1948 104.237 29.1427 104.11 29.0901C104.068 29.0693 104.016 29.0589 103.974 29.0381C103.9 29.0063 103.838 28.9855 103.764 28.9537C103.69 28.9225 103.606 28.8912 103.533 28.8594C102.524 28.3773 101.589 29.4884 102.156 30.4215C102.209 30.5372 102.251 30.6528 102.303 30.7782C102.303 30.7886 102.314 30.7991 102.314 30.8095C102.335 30.8615 102.367 30.9251 102.387 30.9771C102.44 31.0927 102.482 31.1974 102.524 31.3124C102.524 31.3234 102.535 31.3338 102.535 31.3442C102.576 31.4598 102.629 31.5749 102.671 31.6795C104.1 35.2969 108.544 31.4385 105.234 29.5619ZM98.9518 31.9842C98.9831 31.8998 99.0254 31.816 99.0567 31.7321C99.0781 31.6801 99.1094 31.6165 99.1302 31.5645C99.1407 31.5541 99.1407 31.5431 99.1407 31.5327C99.2461 31.2812 99.3614 31.0193 99.4669 30.7574C99.4981 30.684 99.519 30.621 99.5509 30.5476L99.6453 30.3273C100.149 29.478 99.1725 28.3981 98.2792 28.8282C98.2687 28.8386 98.2583 28.8386 98.2479 28.8386C98.1216 28.8907 98.0063 28.9433 97.88 28.9959C97.8064 29.0271 97.7438 29.0479 97.6702 29.0797C97.4072 29.1843 97.1552 29.2994 96.8927 29.4046C96.8192 29.4364 96.756 29.4676 96.6824 29.4884C95.369 29.8764 94.8754 31.6379 95.8841 32.6022C96.8192 33.5353 98.4895 33.1896 98.9518 31.9836V31.9842ZM52.5452 22.5694C54.3528 24.4564 51.6101 27.0985 49.7295 25.3473C47.9335 23.4603 50.6646 20.8287 52.5452 22.5694ZM51.0852 28.1466C51.9775 28.0836 52.766 28.786 52.7555 29.6879V43.4322H49.5198V29.6983C49.5198 28.849 50.2243 28.1466 51.0852 28.1466ZM76.1213 22.5694C77.929 24.4564 75.1862 27.0985 73.3056 25.3473C71.4986 23.4603 74.2511 20.8287 76.1213 22.5694ZM74.6613 28.1466C75.5541 28.0836 76.3421 28.786 76.3316 29.6879V43.4322H73.0959V29.6983C73.1063 28.849 73.7998 28.1466 74.6613 28.1466ZM93.2155 40.6226C91.2926 40.7168 94.1396 31.5119 90.8517 29.4046C87.5945 26.7418 79.6618 27.6332 79.3571 32.8121H82.5407C82.919 30.3585 86.828 30.0024 88.4352 31.302C89.328 31.931 89.3911 33.2 89.339 34.2481C86.8274 34.2586 82.2997 33.9441 80.6079 35.5171C78.4962 36.9636 78.2858 40.9053 80.4921 42.4361C82.9926 44.3549 87.9833 44.0404 89.675 41.0001C89.6223 43.1386 91.3134 43.5681 93.2364 43.4531C95.0747 43.4114 95.0225 40.6434 93.2155 40.6226ZM89.3175 37.1521C89.4647 40.4335 85.5244 42.132 82.9503 40.4965C81.8895 39.7525 81.9631 37.8759 82.9926 37.1943C84.0957 36.2404 87.8674 36.7225 89.3071 36.6069L89.3175 37.1521ZM47.2817 40.6017H38.3195L46.4938 30.9031C47.3866 29.8758 46.5986 28.1148 45.2116 28.157H34.1805V30.9979H42.5541L34.443 40.6006C33.5073 41.6192 34.1272 43.464 35.5988 43.4426H47.2921L47.2817 40.6017Z" fill="#B0B0B0"/>
</g>
</g>
<defs>
<clipPath id="clip0_3_121">
<rect width="73" height="37" fill="white" transform="translate(34 22)"/>
</clipPath>
</defs>
</svg>
