<svg width="100" height="100" viewBox="0 0 100 100" fill="none" xmlns="http://www.w3.org/2000/svg">
<path d="M14.5832 27.625C18.2498 21.875 23.2498 17.0834 29.2082 13.75C37.8332 16.5834 47.2082 22.0834 54.4165 30.2917C42.3332 34.7084 28.1665 34.75 14.5832 27.625ZM26.7915 84.7917C15.4998 77.3334 8.0415 64.5417 8.0415 50C8.0415 44.75 8.99984 39.7084 10.8332 35.0834C19.6248 39.6667 28.6248 41.7084 37.3332 41.7084C45.1665 41.7084 52.7082 40.0834 59.5832 37.25C61.1248 39.75 62.4582 42.5 63.5415 45.4167C59.5832 46.8334 55.6665 48.7084 51.9582 51C39.1665 59 30.1665 71.0834 26.7915 84.7917ZM40.4582 9.37504C43.4165 8.70837 46.5415 8.33337 49.7082 8.33337C59.2082 8.33337 67.9165 11.5 74.9165 16.8334C71.3748 20.6667 67.0832 24.0417 62.2915 26.7084C56.1248 19.0417 48.2915 13.2917 40.4582 9.37504ZM66.4165 57.875C68.3332 77.2917 59.7498 89.25 58.7082 90.6667C58.6665 90.6667 58.6665 90.7084 58.6665 90.7084C55.7915 91.3334 52.7915 91.6667 49.7082 91.6667C44.2915 91.6667 39.1665 90.625 34.4165 88.75C36.8748 76.3334 44.7915 65.25 56.3332 58.0834C59.3748 56.1667 62.5415 54.625 65.7915 53.4584C66.0415 54.875 66.2498 56.375 66.4165 57.875ZM91.3332 51.4167C90.8332 66.1667 82.7082 79 70.7082 86C73.4582 79.3334 75.9582 69.5 74.7082 57.0417C74.4998 55.0417 74.2082 53.0834 73.8332 51.2084C79.8332 50.0417 85.7915 50.0834 91.3332 51.4167ZM71.6248 43.1667C70.3748 39.75 68.8748 36.5417 67.0832 33.5834C72.3748 30.5417 77.1248 26.7917 80.9998 22.5C85.9582 28.125 89.4165 35.0834 90.7498 42.7917C84.5832 41.7084 78.0832 41.8334 71.6248 43.1667Z" fill="#0657D8"/>
</svg>
