<svg width="100" height="100" viewBox="0 0 100 100" fill="none" xmlns="http://www.w3.org/2000/svg">
<path d="M50 4C24.5973 4 4 25.1312 4 51.1705C4 72.0143 17.1839 89.675 35.4607 95.9178C35.7171 95.9735 35.9787 96.001 36.2411 96C37.9455 96 38.6027 94.7473 38.6027 93.6589C38.6027 92.5294 38.5616 89.5723 38.5411 85.6294C37.0195 85.9861 35.4628 86.1721 33.9 86.1839C25.0491 86.1839 23.0366 79.3044 23.0366 79.3044C20.942 73.8625 17.9232 72.4044 17.9232 72.4044C13.9188 69.591 17.9027 69.5089 18.2107 69.5089H18.2313C22.8518 69.9196 25.275 74.3964 25.275 74.3964C27.575 78.4214 30.6554 79.5509 33.4071 79.5509C35.2267 79.5145 37.0181 79.0946 38.6643 78.3187C39.075 75.2794 40.2661 73.2053 41.5804 72.0143C31.3741 70.8232 20.6339 66.7777 20.6339 48.7062C20.6339 43.5518 22.4205 39.342 25.3571 36.0562C24.8848 34.8652 23.3036 30.0598 25.8089 23.5705C26.145 23.4901 26.4904 23.4556 26.8357 23.4678C28.4991 23.4678 32.2571 24.1045 38.4589 28.417C45.9946 26.3086 53.9643 26.3086 61.5 28.417C67.7018 24.1045 71.4598 23.4678 73.1232 23.4678C73.4685 23.4556 73.8139 23.4901 74.15 23.5705C76.6554 30.0598 75.0741 34.8652 74.6018 36.0562C77.5384 39.3625 79.325 43.5723 79.325 48.7062C79.325 66.8187 68.5643 70.8027 58.317 71.9732C59.9598 73.4312 61.4384 76.3062 61.4384 80.7009C61.4384 87.0053 61.3768 92.0982 61.3768 93.6384C61.3768 94.7473 62.0134 96 63.7179 96C63.9938 96.0012 64.2691 95.9736 64.5393 95.9178C82.8366 89.675 96 71.9937 96 51.1705C96 25.1312 75.4027 4 50 4Z" fill="#0657D8"/>
</svg>
