<svg width="100" height="100" viewBox="0 0 100 100" fill="none" xmlns="http://www.w3.org/2000/svg">
<path d="M30 24C23.1044 24 16.4912 26.7393 11.6152 31.6152C6.73928 36.4912 4 43.1044 4 50C4 56.8956 6.73928 63.5088 11.6152 68.3848C16.4912 73.2607 23.1044 76 30 76C36.8956 76 43.5088 73.2607 48.3848 68.3848C53.2607 63.5088 56 56.8956 56 50C56 43.1044 53.2607 36.4912 48.3848 31.6152C43.5088 26.7393 36.8956 24 30 24ZM71 26C63.82 26 58 36.746 58 50C58 52.486 58.204 54.882 58.584 57.136C59.09 60.142 59.908 62.894 60.968 65.266C61.498 66.452 62.088 67.542 62.73 68.52C64.014 70.476 65.506 71.986 67.134 72.922C68.356 73.622 69.654 74 71 74C72.346 74 73.644 73.622 74.866 72.922C76.494 71.986 77.986 70.476 79.27 68.52C79.912 67.542 80.502 66.452 81.032 65.266C82.092 62.896 82.91 60.142 83.416 57.136C83.796 54.882 84 52.486 84 50C84 36.746 78.18 26 71 26ZM91 28C90.482 28 89.982 28.346 89.514 28.99C89.2 29.418 88.9 29.978 88.618 30.656C88.476 30.994 88.338 31.362 88.206 31.758C87.94 32.548 87.692 33.45 87.466 34.444C87.014 36.434 86.648 38.806 86.394 41.438C86.268 42.754 86.17 44.136 86.102 45.568C86.034 46.998 86 48.482 86 50C86 51.518 86.034 53.002 86.102 54.434C86.168 55.866 86.266 57.248 86.394 58.564C86.648 61.196 87.014 63.566 87.466 65.558C87.692 66.554 87.94 67.454 88.206 68.244C88.338 68.64 88.476 69.008 88.618 69.346C88.902 70.024 89.202 70.584 89.514 71.012C89.982 71.654 90.482 72 91 72C93.762 72 96 62.15 96 50C96 37.85 93.762 28 91 28Z" fill="#0657D8"/>
</svg>
